Coordinates
version=1
nRows=26
nColumns=24
inDegrees=yes

Units are S.I. units (second, meters, Newtons, ...)
Angles are in degrees.

endheader
time	pelvis_tilt	pelvis_list	pelvis_rotation	pelvis_tx	pelvis_ty	pelvis_tz	hip_flexion_r	hip_adduction_r	hip_rotation_r	knee_angle_r	ankle_angle_r	subtalar_angle_r	mtp_angle_r	hip_flexion_l	hip_adduction_l	hip_rotation_l	knee_angle_l	ankle_angle_l	subtalar_angle_l	mtp_angle_l	lumbar_extension	lumbar_bending	lumbar_rotation
      2.70000000	    -12.64346343	      8.66605363	     -4.33593558	     -2.32575827	     -0.03341643	     -0.24819911	     20.15241965	    -13.62904491	     -5.44119434	    -63.18788938	    -22.17664682	    -19.58779610	      9.80032429	     29.01275885	      9.72841534	     -4.83372609	    -21.73570834	     -1.88133431	    -17.09581783	     -1.52952835	      9.71099800	     -7.76789172	      4.34038750
      2.70500000	    -12.61326825	      8.44737533	     -4.27729052	     -2.31850345	     -0.03204123	     -0.24871472	     21.09221409	    -13.27974592	     -5.32837711	    -63.74698967	    -21.08876452	    -19.37072897	     10.22133966	     28.29540049	      9.64422131	     -4.63676760	    -21.43095162	     -1.47864433	    -16.90831686	     -1.38905019	      9.61165957	     -7.52101619	      4.13164621
      2.71000000	    -12.58176465	      8.24753274	     -4.22988354	     -2.31122543	     -0.03066226	     -0.24919722	     22.01502948	    -12.94871731	     -5.20879626	    -64.20072244	    -20.02823646	    -19.00477733	     10.87640399	     27.55769586	      9.57254734	     -4.42993508	    -21.08378163	     -1.12782588	    -16.74310134	     -1.27361305	      9.52610509	     -7.29098913	      3.94510881
      2.71500000	    -12.51179101	      8.07785510	     -4.25598686	     -2.30402249	     -0.02926239	     -0.24967249	     22.90613704	    -12.63047705	     -4.99292131	    -64.52588114	    -19.20764556	    -18.61733811	     12.85600633	     26.77114104	      9.51876482	     -4.26090359	    -20.68584566	     -0.91804241	    -16.80166228	     -1.29046018	      9.40039208	     -7.06828563	      3.84424962
      2.72000000	    -12.47524515	      7.72705949	     -4.11127931	     -2.29680648	     -0.02785511	     -0.25021824	     23.70872259	    -12.17258471	     -5.07962712	    -64.72699814	    -18.30178763	    -18.22782540	     13.37557436	     26.03534983	      9.32239246	     -3.95800813	    -20.38735775	     -0.50468627	    -16.54181994	     -1.17729920	      9.27659255	     -6.70241390	      3.50014819
      2.72500000	    -12.34795254	      7.59500761	     -4.12015822	     -2.28952660	     -0.02644354	     -0.25073970	     24.47783661	    -11.92055322	     -4.90093548	    -64.83675158	    -17.53435064	    -17.68428848	     15.81372001	     25.14333078	      9.32986946	     -3.71909370	    -19.90796445	     -0.32873526	    -16.64036053	     -1.38501923	      9.11026994	     -6.52147995	      3.40773970
      2.73000000	    -12.32728587	      7.24721800	     -3.92016636	     -2.28235545	     -0.02513281	     -0.25132077	     25.24150210	    -11.49345804	     -5.06563150	    -64.85379026	    -16.62677505	    -17.19940743	     16.43411870	     24.42364096	      9.14172127	     -3.37923240	    -19.59853242	      0.07702635	    -16.31763256	     -1.28910999	      8.99989195	     -6.17195128	      3.03132695
      2.73500000	    -12.15700734	      7.06667544	     -3.90051087	     -2.27514224	     -0.02372669	     -0.25190324	     25.89617483	    -11.20571905	     -4.96022154	    -64.75416017	    -15.92260902	    -16.64170874	     18.90821508	     23.47430961	      9.11466565	     -3.09579986	    -19.09680693	      0.23391613	    -16.47402717	     -1.60431726	      8.77082565	     -5.94176793	      2.88776882
      2.74000000	    -12.15913622	      6.70603663	     -3.67641916	     -2.26801069	     -0.02252344	     -0.25251452	     26.63306716	    -10.77505956	     -5.16750481	    -64.58961027	    -15.02318039	    -16.13530567	     19.46949137	     22.77795436	      8.90506151	     -2.77611332	    -18.76740968	      0.61174917	    -16.16697401	     -1.52181548	      8.68326947	     -5.57642137	      2.49628963
      2.74500000	    -12.04169791	      6.44313083	     -3.52598118	     -2.26084314	     -0.02124654	     -0.25323899	     27.22919422	    -10.45275371	     -5.23530787	    -64.23278227	    -14.56973955	    -15.84433602	     22.78379081	     21.89799408	      8.81641124	     -2.39924573	    -18.31279096	      0.90143793	    -16.13104231	     -1.93739963	      8.48861153	     -5.28133360	      2.21954056
      2.75000000	    -11.99686801	      6.15149659	     -3.37427878	     -2.25373412	     -0.02011159	     -0.25380290	     27.90970926	    -10.06737364	     -5.34120270	    -63.92431213	    -13.61700680	    -15.24093685	     23.15344481	     21.12433521	      8.64873246	     -2.17789916	    -17.88761735	      1.16308388	    -15.96153305	     -1.88260989	      8.36649751	     -4.96909106	      1.92073580
      2.75500000	    -11.83660430	      5.91691111	     -3.23718042	     -2.24654904	     -0.01891067	     -0.25445096	     28.43515605	     -9.76688643	     -5.42396660	    -63.50093519	    -12.76040114	    -14.66981385	     24.08684020	     20.17365134	      8.56370555	     -1.88003615	    -17.35757991	      1.33231256	    -15.96475354	     -1.95593820	      8.13824981	     -4.70722411	      1.67836149
      2.76000000	    -11.83640092	      5.60685767	     -3.01365866	     -2.23947169	     -0.01795676	     -0.25511536	     29.09393433	     -9.39545487	     -5.60728055	    -63.01169759	    -11.93380189	    -14.21334889	     24.49267898	     19.45787266	      8.38241568	     -1.63129517	    -16.94254561	      1.61771672	    -15.74835183	     -1.89663567	      8.05487597	     -4.38064507	      1.31075186
      2.76500000	    -11.75927480	      5.34509520	     -2.81328933	     -2.23231988	     -0.01699473	     -0.25580508	     29.64848435	     -9.08826026	     -5.76673840	    -62.43811925	    -11.14407247	    -13.75061251	     24.98920559	     18.62404484	      8.25331316	     -1.37570332	    -16.45558204	      1.85793700	    -15.60345527	     -1.87008212	      7.90956841	     -4.09778421	      1.02329601
      2.77000000	    -11.67840174	      5.06659368	     -2.62992906	     -2.22524212	     -0.01606910	     -0.25648444	     30.16710433	     -8.74345277	     -5.87974220	    -61.70248864	    -10.76586724	    -13.62676019	     26.94058682	     17.79372869	      8.09868779	     -1.10462980	    -15.97453882	      2.08790145	    -15.50765120	     -2.03228572	      7.74815046	     -3.79147628	      0.71210251
      2.77500000	    -11.66610960	      4.81130601	     -2.44395774	     -2.21815745	     -0.01533688	     -0.25710911	     30.76338053	     -8.41499412	     -5.99262113	    -60.99527075	    -10.12023536	    -13.27524659	     27.09925357	     17.05308319	      7.94474435	     -0.92721232	    -15.50489765	      2.31924067	    -15.34250734	     -1.98211635	      7.66494164	     -3.50932734	      0.40320382
      2.78000000	    -11.63435919	      4.56235159	     -2.25642145	     -2.21106297	     -0.01466028	     -0.25773761	     31.31184895	     -8.09950453	     -6.10806655	    -60.20730593	     -9.59744848	    -13.01724283	     27.23524886	     16.28962187	      7.79561862	     -0.73193777	    -15.02963800	      2.53404046	    -15.20597072	     -1.94443927	      7.56400415	     -3.23471622	      0.10484747
      2.78500000	    -11.59403536	      4.32627898	     -2.06359079	     -2.20396446	     -0.01406268	     -0.25835637	     31.82536128	     -7.80425412	     -6.22368321	    -59.34657585	     -9.16125372	    -12.82620553	     27.35510244	     15.52024680	      7.65484855	     -0.53681682	    -14.55660146	      2.74704713	    -15.06543451	     -1.91118574	      7.45554223	     -2.97428307	     -0.18741800
      2.79000000	    -11.55596074	      4.10692079	     -1.87936613	     -2.19687245	     -0.01356579	     -0.25894484	     32.32200185	     -7.52265339	     -6.32342889	    -58.41882085	     -8.80962889	    -12.71298470	     27.45269533	     14.75877385	      7.52226405	     -0.35016157	    -14.08853246	      2.96324928	    -14.92754038	     -1.88238755	      7.35120749	     -2.73079214	     -0.45692262
      2.79500000	    -11.53995613	      3.89985814	     -1.70073604	     -2.18979112	     -0.01316640	     -0.25950045	     32.82410669	     -7.24832889	     -6.39715436	    -57.42738790	     -8.55081847	    -12.62551190	     27.51114271	     14.03028732	      7.39144138	     -0.19443262	    -13.62827297	      3.16169609	    -14.78544110	     -1.85759327	      7.26989271	     -2.49908278	     -0.74073637
      2.80000000	    -11.59955373	      3.73614017	     -1.57783982	     -2.18270671	     -0.01298947	     -0.25997731	     33.41301119	     -6.98199172	     -6.39079605	    -56.39789507	     -8.32979176	    -12.58161386	     27.52019289	     13.39028807	      7.28724486	     -0.07666623	    -13.17307297	      3.35261166	    -14.70800274	     -1.83448809	      7.27937531	     -2.29751349	     -0.92121541
      2.80500000	    -11.53313523	      3.53704926	     -1.35473075	     -2.17562313	     -0.01268160	     -0.26051384	     33.78577521	     -6.75503779	     -6.50868622	    -55.25810899	     -8.16177951	    -12.54249682	     27.50265768	     12.61704040	      7.15839797	      0.07806794	    -12.72891045	      3.57170299	    -14.48324880	     -1.78594766	      7.14032067	     -2.09240008	     -1.26039535
      2.81000000	    -11.50634333	      3.38181383	     -1.19633057	     -2.16854697	     -0.01255931	     -0.26093730	     34.20329188	     -6.53175108	     -6.54833204	    -54.07820116	     -8.01051024	    -12.54737059	     27.43116443	     11.89129602	      7.05442859	      0.16352514	    -12.28478692	      3.79709855	    -14.30779391	     -1.73220774	      7.05014521	     -1.92142344	     -1.51366148
      2.81500000	    -11.50566411	      3.24014223	     -1.03490952	     -2.16146975	     -0.01253891	     -0.26133607	     34.62365375	     -6.32797869	     -6.57810661	    -52.83997477	     -7.89131342	    -12.51840442	     27.30466841	     11.20006529	      6.95701385	      0.23035793	    -11.84928914	      4.01743486	    -14.10838661	     -1.65743582	      6.98927997	     -1.76558971	     -1.76090146
      2.82000000	    -11.51649826	      3.10890852	     -0.87128801	     -2.15439675	     -0.01259597	     -0.26168671	     35.02701481	     -6.13941237	     -6.60390049	    -51.53889093	     -7.79983861	    -12.45427117	     27.12949422	     10.52750811	      6.86173123	      0.27839646	    -11.42253702	      4.23031064	    -13.88310640	     -1.56082811	      6.93986257	     -1.62788016	     -1.99697248
      2.82500000	    -11.50636552	      2.99054856	     -0.71109412	     -2.14732219	     -0.01273701	     -0.26201156	     35.37946842	     -5.97068493	     -6.63418722	    -50.18324834	     -7.69534604	    -12.37918106	     26.86364502	      9.83806896	      6.77430553	      0.28007943	    -11.00491541	      4.48074253	    -13.62839749	     -1.41201849	      6.86987779	     -1.50036669	     -2.25674182
